<svg width="512" height="219" viewBox="0 0 512 219" fill="none" xmlns="http://www.w3.org/2000/svg">
<path d="M19.9145 89.9931L20.8939 104.515L23.2327 127.098L25.9448 157.262C26.215 160.267 26.7741 163.239 27.6144 166.137L29.8764 173.937C33.4489 186.257 43.6802 195.498 56.299 197.802C60.2109 198.516 64.2182 198.535 68.1368 197.858L94.8295 193.247C98.5453 192.605 102.309 192.282 106.08 192.282H136.973C148.933 193.407 160.838 189.637 169.97 181.832L183.051 170.652L190.862 165.423C194.482 163 198.332 160.941 202.356 159.276L207.556 157.124C215.569 153.808 224.156 152.101 232.828 152.101H253.995H269.5C276.207 152.101 282.875 153.122 289.275 155.129L310.485 161.78L344.816 168.815C350.767 170.034 356.521 172.067 361.916 174.858L362.889 175.361C372.275 180.217 382.688 182.75 393.255 182.75H416.933H440.439C444.881 182.75 449.311 182.303 453.663 181.414L465.202 179.058C467.36 178.617 469.465 177.954 471.486 177.078C480.807 173.04 487.639 164.793 489.874 154.884L490.793 150.806C491.446 147.915 491.775 144.96 491.775 141.996V116.899V110.239C491.775 103.834 490.189 97.5293 487.159 91.8865L484.13 86.2459C479.236 77.1325 469.729 71.4467 459.385 71.4467C455.05 71.4467 450.774 70.4435 446.892 68.5157L440.104 65.1445C435.604 62.9101 431.52 59.9221 428.028 56.3098L417.077 44.9798C412.21 39.9445 404.917 38.0879 398.235 40.1829C389.662 42.8706 380.349 38.9199 376.218 30.9416C373.414 25.5279 368.119 21.7619 362.077 20.9467L353.785 19.8276H346.179C337.885 19.8276 330.246 24.3352 326.235 31.5958C324.363 34.986 321.657 37.8429 318.373 39.8967L314.733 42.1736C311.93 43.927 308.802 45.099 305.537 45.6198C298.998 46.6627 292.315 45.0334 286.989 41.0983L284.4 39.1848C272.296 31.8801 258.048 28.9615 244.046 30.919L242.398 31.1495C238.702 31.6661 235.057 32.4949 231.501 33.6267L202.195 42.9555C198.277 44.2029 194.251 45.0818 190.169 45.5809L176.515 47.2503H164.619C158.967 47.2503 153.617 44.699 150.059 40.3071L149.479 39.5917C147.965 37.7217 146.135 36.1306 144.073 34.8902L128.087 25.2754C119.753 20.2624 109.021 21.9737 102.659 29.3299C101.173 31.048 99.4049 32.5003 97.4312 33.6245L91.9173 36.7651L88.9427 37.9752C86.9641 38.78 85.0606 39.7582 83.2543 40.8985C79.1437 43.4934 74.5529 45.2345 69.7554 46.0182L62.2129 47.2503L49.4814 50.1772C44.0037 51.4366 38.8711 53.8888 34.4496 57.359C24.5054 65.1635 19.064 77.3806 19.9145 89.9931Z" stroke="#A15353" stroke-width="39.6553"/>
<path d="M19.9145 89.9931L20.8939 104.515L23.2327 127.098L25.9448 157.262C26.215 160.267 26.7741 163.239 27.6144 166.137L29.8764 173.937C33.4489 186.257 43.6802 195.498 56.299 197.802C60.2109 198.516 64.2182 198.535 68.1368 197.858L94.8295 193.247C98.5453 192.605 102.309 192.282 106.08 192.282H136.973C148.933 193.407 160.838 189.637 169.97 181.832L183.051 170.652L190.862 165.423C194.482 163 198.332 160.941 202.356 159.276L207.556 157.124C215.569 153.808 224.156 152.101 232.828 152.101H253.995H269.5C276.207 152.101 282.875 153.122 289.275 155.129L310.485 161.78L344.816 168.815C350.767 170.034 356.521 172.067 361.916 174.858L362.889 175.361C372.275 180.217 382.688 182.75 393.255 182.75H416.933H440.439C444.881 182.75 449.311 182.303 453.663 181.414L465.202 179.058C467.36 178.617 469.465 177.954 471.486 177.078C480.807 173.04 487.639 164.793 489.874 154.884L490.793 150.806C491.446 147.915 491.775 144.96 491.775 141.996V116.899V110.239C491.775 103.834 490.189 97.5293 487.159 91.8865L484.13 86.2459C479.236 77.1325 469.729 71.4467 459.385 71.4467C455.05 71.4467 450.774 70.4435 446.892 68.5157L440.104 65.1445C435.604 62.9101 431.52 59.9221 428.028 56.3098L417.077 44.9798C412.21 39.9445 404.917 38.0879 398.235 40.1829C389.662 42.8706 380.349 38.9199 376.218 30.9416C373.414 25.5279 368.119 21.7619 362.077 20.9467L353.785 19.8276H346.179C337.885 19.8276 330.246 24.3352 326.235 31.5958C324.363 34.986 321.657 37.8429 318.373 39.8967L314.733 42.1736C311.93 43.927 308.802 45.099 305.537 45.6198C298.998 46.6627 292.315 45.0334 286.989 41.0983L284.4 39.1848C272.296 31.8801 258.048 28.9615 244.046 30.919L242.398 31.1495C238.702 31.6661 235.057 32.4949 231.501 33.6267L202.195 42.9555C198.277 44.2029 194.251 45.0818 190.169 45.5809L176.515 47.2503H164.619C158.967 47.2503 153.617 44.699 150.059 40.3071L149.479 39.5917C147.965 37.7217 146.135 36.1306 144.073 34.8902L128.087 25.2754C119.753 20.2624 109.021 21.9737 102.659 29.3299C101.173 31.048 99.4049 32.5003 97.4312 33.6245L91.9173 36.7651L88.9427 37.9752C86.9641 38.78 85.0606 39.7582 83.2543 40.8985C79.1437 43.4934 74.5529 45.2345 69.7554 46.0182L62.2129 47.2503L49.4814 50.1772C44.0037 51.4366 38.8711 53.8888 34.4496 57.359C24.5054 65.1635 19.064 77.3806 19.9145 89.9931Z" fill="#5E0D0E" stroke="#5E0D0E" stroke-width="26.4368"/>
<path fill-rule="evenodd" clip-rule="evenodd" d="M308.685 88.8515C308.863 89.5442 309.482 89.9755 310.067 89.8148C310.653 89.6542 310.983 88.9624 310.805 88.2697C310.627 87.577 310.008 87.1457 309.422 87.3063C308.837 87.467 308.507 88.1587 308.685 88.8515ZM309.641 92.4055C309.995 92.4459 310.356 92.4213 310.712 92.3234C311.084 92.2214 311.422 92.048 311.718 91.8184C312.82 90.9629 313.347 89.3263 312.925 87.6879C312.391 85.6097 310.534 84.3158 308.777 84.7978C307.021 85.2798 306.03 87.3551 306.564 89.4332C306.986 91.0716 308.229 92.2226 309.597 92.4002L309.641 92.4055ZM301.8 97.4541C299.68 98.0359 299.922 98.9766 300.97 103.053L300.985 103.049L302.639 109.478C302.273 109.468 301.904 109.51 301.538 109.611C301.172 109.711 300.831 109.864 300.518 110.06L298.865 103.63L298.849 103.635C298.739 103.206 298.635 102.774 298.547 102.375C297.504 97.6595 298.223 95.7502 301.155 94.9456C304.336 94.0729 305.672 94.8569 307.331 101.308C308.621 106.325 309.151 106.179 310.739 105.743L310.744 105.742C312.332 105.307 312.862 105.161 311.572 100.144L311.587 100.14L309.934 93.7105C310.299 93.7206 310.669 93.6781 311.035 93.5776C311.401 93.4772 311.742 93.3248 312.055 93.1287L313.708 99.558L313.693 99.562C313.804 99.9914 313.908 100.422 313.999 100.821C315.068 105.529 314.514 107.393 311.387 108.251C307.994 109.182 306.869 108.34 305.211 101.889C304.116 97.6324 303.921 96.8723 301.8 97.4541ZM301.768 114.919C301.946 115.612 302.565 116.043 303.15 115.882C303.736 115.722 304.066 115.03 303.888 114.337C303.71 113.644 303.091 113.213 302.505 113.374C301.92 113.534 301.59 114.226 301.768 114.919ZM299.647 115.501C300.182 117.579 302.039 118.873 303.795 118.391C305.552 117.909 306.543 115.833 306.008 113.755C305.587 112.117 304.344 110.966 302.976 110.788C302.961 110.786 302.946 110.785 302.931 110.783C302.578 110.743 302.217 110.767 301.86 110.865C301.489 110.967 301.151 111.141 300.855 111.37C299.753 112.226 299.226 113.862 299.647 115.501Z" fill="#C23C3C"/>
<g clip-path="url(#clip0_20_720)">
<path fill-rule="evenodd" clip-rule="evenodd" d="M410.837 52.0677C409.871 51.5913 409.132 51.305 408.51 51.1726C408.744 51.7838 409.145 52.487 409.766 53.3877C411.25 55.5573 413.584 58.1142 416.552 60.6861C419.515 63.2625 422.354 65.1965 424.677 66.3319C425.642 66.8084 426.381 67.0946 427.004 67.2271C426.77 66.6158 426.369 65.9127 425.748 65.0119C424.264 62.8424 421.929 60.2854 418.962 57.7136C415.999 55.1372 413.16 53.2032 410.837 52.0677ZM421.373 54.7411C418.253 52.0361 415.044 49.854 412.508 48.6042C411.204 47.9673 409.89 47.5045 408.882 47.3437C407.928 47.1989 406.386 47.1812 405.364 48.4415C404.342 49.7018 404.626 51.2698 404.93 52.2166C405.258 53.215 405.927 54.474 406.759 55.6915C408.389 58.0589 411.024 60.949 414.141 63.6585C417.261 66.3635 420.47 68.5457 423.006 69.7955C424.31 70.4322 425.624 70.8952 426.632 71.0559C427.586 71.2007 429.128 71.2184 430.15 69.9582C431.172 68.6979 430.887 67.1299 430.584 66.183C430.256 65.1847 429.587 63.9256 428.755 62.7081C427.124 60.3407 424.49 57.4507 421.373 54.7411ZM394.256 70.8159L405.41 57.0642C407.123 59.4895 409.837 62.4472 412.934 65.144L412.936 65.1456C416.041 67.8333 419.328 70.0841 421.934 71.4086L414.527 80.5408C414.97 81.8402 415.438 83.0365 416.105 84.0465C417.044 85.5058 418.37 86.6067 420.795 86.9361C421.792 87.0713 422.46 88.0277 422.289 89.0725C422.117 90.117 421.171 90.8543 420.175 90.7191C416.669 90.2431 414.491 88.5162 413.039 86.2622C412.563 85.5091 412.165 84.7032 411.818 83.8816L410.78 85.1603L409.143 87.1794C408.311 88.2055 403.937 85.8261 399.374 81.865C394.811 77.9038 391.787 73.861 392.619 72.8349L394.256 70.8159ZM392.5 70.0882C391.883 69.8731 391.304 69.7175 390.801 69.6373C389.847 69.4925 388.305 69.4747 387.282 70.7351C386.26 71.9954 386.545 73.5633 386.848 74.5101C387.176 75.5085 387.845 76.7676 388.678 77.9851C390.308 80.3525 392.942 83.2426 396.059 85.9521C399.179 88.6572 402.388 90.8392 404.925 92.089C406.228 92.7259 407.543 93.1887 408.55 93.3494C409.504 93.4943 411.046 93.5121 412.068 92.2517C413.091 90.9914 412.806 89.4234 412.502 88.4767C412.339 87.978 412.09 87.4144 411.778 86.8234L410.52 88.3748C409.996 89.0211 409.31 89.2412 408.809 89.3024C408.412 89.3405 407.849 89.2937 407.434 89.2004C406.696 89.0205 405.716 88.61 404.758 88.0912C402.902 87.0781 400.515 85.3856 398.169 83.3512C395.824 81.3135 393.799 79.1755 392.512 77.4606C391.852 76.5743 391.291 75.6479 390.992 74.9269C390.831 74.5204 390.689 73.9551 390.656 73.5436C390.627 73.0226 390.718 72.2859 391.242 71.6396L392.5 70.0882Z" fill="#C23C3C"/>
</g>
<g clip-path="url(#clip1_20_720)">
<path d="M107.889 52.0161C99.9677 50.0789 103.086 44.4909 100.775 42.1794M115.002 61.8529L118.019 56.4466C118.441 55.8107 118.728 55.0891 118.86 54.3297C118.992 53.5703 118.966 52.7906 118.785 52.0423C123.297 54.0859 128.681 55.0851 132.938 47.4576C134.026 45.507 134.347 43.1982 133.836 41.0091C135.404 39.6704 136.413 37.7582 136.653 35.6699C136.653 35.6699 135.333 34.2292 130.22 34.5838C127.609 31.8675 124.347 29.9188 120.768 28.938C118.508 24.1796 116.642 23.7169 116.642 23.7169C115.014 24.9767 113.918 26.8368 113.581 28.9109C111.477 29.5518 109.695 31.0107 108.609 32.9817C104.383 40.5533 107.912 44.8773 111.848 47.9547C111.138 48.1643 110.48 48.526 109.914 49.0164C109.349 49.5067 108.89 50.1147 108.567 50.8008L105.55 56.2071" stroke="#C23C3C" stroke-width="3.30461" stroke-linecap="round" stroke-linejoin="round"/>
</g>
<g clip-path="url(#clip2_20_720)">
<path d="M366.473 169.623L378.878 165.437L371.784 160.766L372.339 152.29L361.504 159.664M351.909 159.173C356.837 156.721 362.882 158.854 365.41 163.936C367.938 169.019 365.992 175.126 361.064 177.577C356.135 180.029 350.091 177.896 347.563 172.814C345.035 167.732 346.98 161.624 351.909 159.173Z" stroke="#C23C3C" stroke-width="5.28737" stroke-linecap="round" stroke-linejoin="round"/>
</g>
<path fill-rule="evenodd" clip-rule="evenodd" d="M114.064 150.596L119.448 152.302C120.739 151.4 122.164 150.683 123.682 150.19L125.752 144.772C126.68 144.641 127.63 144.574 128.596 144.574C129.561 144.574 130.511 144.641 131.442 144.772L133.509 150.19C135.027 150.683 136.452 151.4 137.743 152.302L143.127 150.596C144.502 151.951 145.699 153.5 146.679 155.196L143.873 160.248C144.429 161.739 144.787 163.331 144.916 164.988L149.563 168.281C149.392 170.285 148.962 172.211 148.302 174.021L142.729 174.902C141.931 176.312 140.942 177.59 139.798 178.7L140.21 184.515C138.636 185.594 136.917 186.46 135.086 187.072L130.946 183.114C130.179 183.23 129.393 183.288 128.596 183.288C127.798 183.288 127.014 183.23 126.245 183.114L122.105 187.072C120.276 186.46 118.555 185.594 116.983 184.515L117.393 178.7C116.249 177.59 115.26 176.312 114.462 174.902L108.889 174.021C108.231 172.211 107.799 170.285 107.628 168.281L112.275 164.988C112.404 163.331 112.762 161.739 113.318 160.248L110.514 155.196C111.494 153.5 112.689 151.951 114.064 150.596ZM128.596 176.029C133.762 176.029 137.951 171.696 137.951 166.351C137.951 161.006 133.762 156.672 128.596 156.672C123.429 156.672 119.24 161.006 119.24 166.351C119.24 171.696 123.429 176.029 128.596 176.029Z" fill="#C23C3C"/>
<path fill-rule="evenodd" clip-rule="evenodd" d="M473.127 187.214C473.12 187.73 472.741 188.079 472.281 187.994C471.821 187.909 471.453 187.422 471.46 186.907L471.638 173.837C471.645 173.322 472.024 172.973 472.484 173.057C472.944 173.142 473.312 173.629 473.305 174.145L473.127 187.214ZM465.314 178.527C465.744 178.784 465.958 179.362 465.792 179.816L465.697 180.079C465.122 181.667 464.835 182.46 464.457 184.158C466.02 184.996 466.781 185.284 468.445 185.916L468.618 185.981C469.07 186.152 469.368 186.692 469.282 187.185C469.197 187.678 468.768 187.874 468.308 187.769C466.723 187.404 465.589 186.853 463.641 185.661C463.355 185.458 463.074 185.21 462.916 184.864C462.758 184.519 462.753 184.144 462.786 183.796C463.155 181.541 463.477 180.322 464.236 178.885L464.237 178.883C464.402 178.429 464.885 178.269 465.314 178.527ZM476.147 175.07C475.695 174.899 475.397 174.36 475.483 173.867C475.568 173.373 476.004 173.111 476.456 173.283L476.457 173.284C478.042 173.647 479.176 174.199 481.124 175.391C481.41 175.594 481.691 175.842 481.849 176.187C482.007 176.532 482.012 176.907 481.979 177.257C481.61 179.511 481.287 180.73 480.529 182.168C480.308 182.585 479.88 182.782 479.451 182.525C479.021 182.268 478.807 181.69 478.973 181.236L479.036 181.062C479.644 179.389 479.923 178.625 480.308 176.893C478.775 176.072 477.987 175.771 476.409 175.17L476.147 175.07Z" fill="#C23C3C"/>
<g clip-path="url(#clip3_20_720)">
<path d="M235.692 33.5542L228.361 27.8556M224.318 29.8646L231.427 35.4065L239.7 31.8253M230.268 44.5024L231.428 35.3974M238.897 40.0212L239.818 32.795C239.858 32.4781 239.816 32.1566 239.696 31.8626C239.577 31.5686 239.383 31.3125 239.136 31.12L233.43 26.7209C233.182 26.5282 232.889 26.406 232.58 26.3666C232.27 26.3272 231.956 26.3719 231.668 26.4963L225.04 29.3233C224.753 29.4476 224.501 29.6471 224.312 29.9016C224.122 30.1562 224.001 30.4569 223.96 30.7737L223.039 37.9999C222.999 38.3167 223.041 38.6382 223.161 38.9322C223.28 39.2262 223.474 39.4823 223.721 39.6748L229.427 44.074C229.675 44.2667 229.968 44.3889 230.277 44.4283C230.587 44.4677 230.901 44.423 231.189 44.2985L237.816 41.4715C238.104 41.3472 238.356 41.1478 238.545 40.8932C238.735 40.6387 238.856 40.3379 238.897 40.0212Z" stroke="#C23C3C" stroke-width="5.28737" stroke-linecap="round" stroke-linejoin="round"/>
</g>
<path fill-rule="evenodd" clip-rule="evenodd" d="M474.682 70.7813C474.496 71.7224 474.41 72.5052 474.446 73.1915C474.463 73.5572 474.518 73.8953 474.611 74.2146C474.674 74.4368 474.758 74.651 474.862 74.8573C475.01 75.1549 475.2 75.4404 475.435 75.7255C475.873 76.2527 476.466 76.7683 477.24 77.3343C477.327 77.3984 477.414 77.4624 477.504 77.525C478.137 77.9739 477.67 79.0441 476.914 78.8814C476.805 78.858 476.698 78.8358 476.594 78.8147C475.654 78.6261 474.873 78.5376 474.19 78.5721C473.824 78.5893 473.488 78.644 473.171 78.736C472.95 78.7986 472.738 78.8816 472.532 78.9855C472.236 79.133 471.952 79.3206 471.671 79.5558C471.146 79.9929 470.631 80.5877 470.067 81.3633C470.005 81.4493 469.942 81.5379 469.879 81.6284C469.432 82.2606 468.365 81.7897 468.526 81.0307C468.548 80.9222 468.571 80.8175 468.591 80.7116C468.773 79.7826 468.86 79.0079 468.825 78.3298C468.807 77.9666 468.755 77.6314 468.664 77.3159C468.595 77.0808 468.508 76.8573 468.397 76.6388C468.247 76.3463 468.056 76.0652 467.82 75.7871C467.382 75.2706 466.789 74.7657 466.017 74.2133C465.931 74.1511 465.842 74.0904 465.751 74.0278C465.114 73.5847 465.567 72.5096 466.326 72.6646C466.434 72.6861 466.541 72.7084 466.646 72.7269C467.6 72.9078 468.39 72.9891 469.08 72.9473C469.448 72.9249 469.787 72.867 470.109 72.7691C470.316 72.7071 470.516 72.6292 470.71 72.5321C471.011 72.3825 471.299 72.1935 471.582 71.9576C472.114 71.5157 472.635 70.9143 473.203 70.1303C473.266 70.0443 473.329 69.9557 473.393 69.8645C473.839 69.2331 474.908 69.7032 474.746 70.4622C474.733 70.5251 474.72 70.5854 474.707 70.6457C474.7 70.6912 474.689 70.7357 474.682 70.7813Z" fill="#C23C3C"/>
<path d="M431.031 176.315L429.409 176.019C426.166 175.427 424.796 174.548 424.354 171.794L420.883 152.921C420.813 152.436 420.744 151.952 420.796 151.647C421.186 149.359 424.186 149.592 425.955 149.915C434.678 151.349 439.533 147.832 440.157 144.172C440.495 142.189 438.994 139.399 437.399 136.278L434.198 130.977C429.012 122.168 427.476 115.126 428.464 109.331C431.401 92.0982 456.988 87.3311 476.299 90.8538C482.048 91.9025 483.418 92.7815 483.982 95.7148L487.601 114.615C487.791 115.279 487.713 115.737 487.635 116.194C487.35 117.872 485.624 118.186 483.708 117.836L483.118 117.729C474.273 116.115 470.363 118.547 469.843 121.597C469.401 124.19 471.119 127.491 475.629 134.918C481.11 143.78 482.888 151.18 481.901 156.976C478.834 174.971 450.784 179.918 431.031 176.315Z" fill="#ED5858"/>
<path d="M411.543 163.81L395.207 172.566C393.316 173.575 391.758 173.708 390.441 173.418C389.855 173.289 363.827 162.183 370.144 131.434C373.91 113.105 367.049 104.789 356.507 102.471L355.775 102.31L344.478 157.295C344.105 159.112 342.507 160.186 340.897 159.832L311.614 153.392C309.857 153.006 308.819 151.353 309.193 149.535L334.65 25.6303C334.992 23.9641 336.621 22.7391 338.378 23.1255L367.661 29.5648C369.271 29.919 370.278 31.7235 369.935 33.3897L361.844 72.7727C363.632 73.0076 365.389 73.3939 366.999 73.7481C394.525 79.8011 413.001 101.596 407.279 131.684C405.402 141.562 405.75 149.554 411.71 157.039C412.433 157.99 413.732 159.859 413.39 161.525C413.234 162.282 412.755 163.127 411.543 163.81Z" fill="#ED5858"/>
<path d="M301.346 124.793L296.263 145.236C295.473 148.322 294.348 150.049 292.124 150.373C291.68 150.437 291.235 150.502 290.769 150.413C266.238 148.976 256.104 136.688 250.093 97.9981L238.892 99.0011C237.241 99.0848 235.698 97.7453 235.469 96.0584L233.79 70.3437C233.709 68.6353 234.856 67.0611 236.634 66.8025L246.204 66.0366C245.709 60.1662 245.151 53.8357 244.7 47.177C244.599 45.3153 244.499 42.3585 248.353 41.7982L248.946 41.7119L277.148 39.0188C279.689 38.8057 281.083 40.1668 281.437 42.7738C282.016 49.2576 282.488 56.0697 282.918 62.575L293.229 61.7013C294.86 61.4643 296.402 62.8038 296.652 64.644L298.331 90.3587C298.391 91.9138 297.393 93.4664 295.763 93.7034L295.466 93.7465L285.621 94.7089C287.516 108.664 290.732 118.986 297.65 120.952C299.385 121.481 301.247 121.836 301.476 123.523C301.518 123.83 301.432 124.311 301.346 124.793Z" fill="#ED5858"/>
<path d="M242.349 111.981L239.12 132.769C238.625 135.703 237.618 137.507 235.767 138.129C234.343 138.608 223.638 139.601 214.346 135.072C208.193 141.537 201.06 145.888 193.8 148.329C170.026 156.32 143.606 144.36 136.159 120.648C130.609 102.974 134.707 73.4278 162.894 63.9528C170.012 61.5602 177.496 60.8354 183.834 61.4728C184.365 60.1548 185.507 59.2823 187.215 58.708L187.927 58.4688L213.249 52.3993C217.043 51.4496 218.641 53.0293 219.196 54.7966L219.427 55.533C221.643 69.6052 223.674 83.0884 226.727 92.8087C229.502 101.645 233.057 107.452 238.399 108.424C240.054 108.682 241.897 109.04 242.36 110.512C242.452 110.807 242.449 111.297 242.349 111.981ZM197.262 115.251C195.632 111.565 194.052 107.537 192.618 102.972C191.416 99.1425 190.309 95.1182 189.206 90.6041C186.573 88.2328 182.082 87.463 177.953 88.8507C168.985 91.8655 166.824 102.524 169.183 110.036C171.773 118.283 179.545 123.486 188.798 120.376C191.503 119.466 194.45 117.825 197.262 115.251Z" fill="#ED5858"/>
<path d="M75.7002 188.601L45.9323 192.301C44.4582 192.57 42.8976 191.44 42.6117 189.762L42.5597 189.457L27.9221 67.9031C27.7836 66.1986 28.8764 64.5841 30.3505 64.3152L30.6453 64.2614L55.4967 61.1432C61.4194 57.5468 67.6975 55.1436 73.8887 54.0142C99.8329 49.2814 126.451 64.5533 131.181 92.3091C135.912 120.065 119.885 141.072 92.0247 146.154C85.8334 147.284 79.6337 147.471 73.8676 146.636L78.4234 184.959C78.5879 186.816 77.4691 188.278 75.7002 188.601ZM66.7828 87.2314L70.3597 118.028C73.8886 119.114 78.3715 119.554 82.4989 118.801C83.6782 118.586 97.8296 116.005 94.9704 99.2292C93.177 88.7064 84.264 82.7845 73.9453 84.6668C71.5868 85.0971 69.1588 86.0117 66.7828 87.2314Z" fill="#ED5858"/>
<defs>
<clipPath id="clip0_20_720">
<rect width="58.3509" height="61.2363" fill="white" transform="matrix(0.755153 0.655548 -0.629923 0.776658 407.951 27.8931)"/>
</clipPath>
<clipPath id="clip1_20_720">
<rect width="37.7485" height="38.3951" fill="white" transform="matrix(0.858512 0.512793 -0.487315 0.873226 110.548 18.2146)"/>
</clipPath>
<clipPath id="clip2_20_720">
<rect width="35.2383" height="34.1711" fill="white" transform="translate(354.135 189.223) rotate(-116.447)"/>
</clipPath>
<clipPath id="clip3_20_720">
<rect width="21.3144" height="21.8539" fill="white" transform="translate(222.238 23.2107) rotate(7.26405)"/>
</clipPath>
</defs>
</svg>
